<svg xmlns="http://www.w3.org/2000/svg" viewBox="0 0 563.17 563.17"><defs><style>.cls-1{stroke:#000;stroke-miterlimit:10;}</style></defs><title>La-pista-logo</title><g id="Layer_2" data-name="Layer 2"><g id="Logo"><path class="cls-1" d="M150.39,295.21s1.05,5.94,5,5.94,6.17-5.94,6.17-5.94V280.29C147.83,285.19,150.39,295.21,150.39,295.21Z"/><path class="cls-1" d="M245.92,268.12c-4.78,0-8.27,7-8.27,7v20.5S242,303,248.37,303s7.57-7,7.57-7,3.2-10.37-.58-20.8C253.41,269.74,250.7,268.12,245.92,268.12Z"/><path class="cls-1" d="M431.73,295.21s1,5.94,5,5.94,6.17-5.94,6.17-5.94V280.29C429.17,285.19,431.73,295.21,431.73,295.21Z"/><path class="cls-1" d="M281.58,44.48c-130.94,0-237.1,106.16-237.1,237.1s106.16,237.1,237.1,237.1,237.1-106.15,237.1-237.1S412.53,44.48,281.58,44.48ZM98.34,306.19a15.29,15.29,0,0,0,2.18-7.43s.23-45,0-50.33A11.86,11.86,0,0,0,97,240.27h25.86c-2.56,3.38-2.4,8.13-2.4,8.13s0,45.66,0,50.32a10.12,10.12,0,0,0,3.72,7.47Zm65.68-.61s-2.56-.12-2.56-5.6c0,0-3.61,8-15.61,8s-16.2-7.92-16.2-7.92a8,8,0,0,1,0-8.51,17.06,17.06,0,0,1,6.18-6,38.38,38.38,0,0,1,19-5.6s7.22-.35,6.87-9.2c-.45-7.61-9.38-2.07-9.38-2.07a19,19,0,0,0-5.76,6.5c-2.22,4.19-7.11,3.73-7.11,3.73s-8-1.17-7.22-7.93c0,0,7.1-7.92,25.74-7.92,17.94,0,21.32,5.94,21.32,5.94s2,1.53,2.33,9.67V300.8a7,7,0,0,0,2.22,4.78Zm93.49,3.55c-16.95,0-20.8-8-20.8-8V321s-.08,4.2,2.8,4.2h-24.2V321.1s1.83-.26,1.83-4.11V270.22s.23-5.25-2.56-5.25l22-.23.11,4.89s4.9-6.64,17.13-6.64,24.47,1.79,24.47,19.54S274.46,309.13,257.51,309.13Zm50.62-3.5h-23.3a9.31,9.31,0,0,0,2-6.17v-28.2s.7-6.87-2-6.87h23.3a22.18,22.18,0,0,0-1.51,7.57v28S306.21,303.71,308.13,305.63Zm-11.65-47.36-11.65-10.13L296.48,238l11.65,10.49Zm63,39.28s-4.2,10.62-20.23,10.62S317.06,301,317.06,301a10.4,10.4,0,0,1-2.62-6.64c0-3.93,6.29-4.19,6.29-4.19s8.82-.44,9.22,4.8a10.64,10.64,0,0,0,3.84,7.69s5.24,3.41,7.78.88c5.46-5.46-.26-9.27-.26-9.27l-12.67-6.11s-8.74-3.85-11.89-8.74a8.77,8.77,0,0,1,0-9.42s3-4.21,10.84-6.48,17.71.38,17.71.38,3.78.84,10.95,6.08-4.55,7.52-4.55,7.52c-2.85,0-6.24-3.86-6.24-3.86s-8.2-10.06-12-7c-5.73,4.52-.16,6.5-.16,6.5L346.9,279s9.79,3.67,12.54,9.09A9.62,9.62,0,0,1,359.44,297.55Zm40.32,6.74s-2.27,3.91-13.92,3.91-13.51-10.72-13.51-10.72V267h-9.56V264c18.59,0,13.93-18,13.93-18h16.95c0,15-9.09,18-9.09,18h19.75l.17,2.91H392.6l-.35,28.66s-.06,8.57,4.08,6.53c6-2.91,5.7-10.55,5.7-10.55s.41-4,1.75-4,1.46,2,1.46,2C405.24,299.58,399.76,304.29,399.76,304.29Zm45.6,1.29s-2.56-.12-2.56-5.6c0,0-3.61,8-15.61,8S411,300.1,411,300.1a8,8,0,0,1,0-8.51,17.06,17.06,0,0,1,6.18-6,38.38,38.38,0,0,1,19-5.6s7.22-.35,6.87-9.2c-.45-7.61-9.38-2.07-9.38-2.07a19,19,0,0,0-5.76,6.5c-2.22,4.19-7.11,3.73-7.11,3.73s-8-1.17-7.22-7.93c0,0,7.1-7.92,25.74-7.92,17.94,0,21.32,5.94,21.32,5.94s2,1.53,2.33,9.67V300.8a7,7,0,0,0,2.22,4.78Z"/><g id="ring"><path id="ring-2" data-name="ring" class="cls-1" d="M281.58.5C126.34.5.5,126.34.5,281.58S126.34,562.67,281.58,562.67,562.67,436.82,562.67,281.58,436.82.5,281.58.5Zm1.5,538c-141.6,0-256.4-114.79-256.4-256.4S141.48,25.7,283.08,25.7,539.49,140.49,539.49,282.1,424.69,538.5,283.08,538.5Z"/></g></g></g></svg>